# xmcd
#
# Track frame offsets: 
#        150
#        14074
#        33283
#        47435
#        64811
#        83930
#        97291
#        109992
#        124175
#        136659
#        149939
#        163770
#        174847
#        188828
#        200483
#        213928
#        224639
#        238352
#        251977
#        268895
#        284332
#        301866
#        311912
#        326249
#        340850
#
# Disc length: 4701 seconds
#
# Revision: 0
# Processed by: cddbd v1.5.2PL0 Copyright (c) Steve Scherf et al.
# Submitted via: ExactAudioCopy v0.99pb5
#
DISCID=98125b19
DTITLE=Σούλα Μπιρμπίλη - Τραγουδά Μ. Θεοδωράκη, Γ. Σπανό, Ν. Μαυρουδή
DYEAR=2010
DGENRE=Alternative
TTITLE0=Δακρυσμένα μάτια
TTITLE1=Ο κήπος έμπαινε στη θάλασσα
TTITLE2=Ήταν μεγάλη η νύχτα
TTITLE3=’νοιξε λίγο το παράθυρο
TTITLE4=Κοιμήσου, αγγελούδι μου
TTITLE5=Του μικρού Βοριά
TTITLE6=Η κιθάρα
TTITLE7=Ερωτικό
TTITLE8=Το τραγούδι της Ελένης
TTITLE9=Αγάπη Μου
TTITLE10=Σαν βγεί στον κήπο το φεγγάρι
TTITLE11=Λαβωμένο παλικάρι
TTITLE12=Τα Ελληνάκια
TTITLE13=Οι όμηροι
TTITLE14=Το ψωμί είναι στο τραπέζι
TTITLE15=Το γελαστό παιδί
TTITLE16=Δυό παλικάρια
TTITLE17=Μοιρολόϊ
TTITLE18=Το τριζόνι
TTITLE19=Παιδί χαμένο
TTITLE20=Στράτα τη στράτα
TTITLE21=Τα 'δατε, τα 'μάθατε
TTITLE22=Ο δρόμος μας
TTITLE23=Σ' αυτό το ακρογιάλι
TTITLE24=Ξέρω πως θα φύγεις
EXTD=
EXTT0=
EXTT1=
EXTT2=
EXTT3=
EXTT4=
EXTT5=
EXTT6=
EXTT7=
EXTT8=
EXTT9=
EXTT10=
EXTT11=
EXTT12=
EXTT13=
EXTT14=
EXTT15=
EXTT16=
EXTT17=
EXTT18=
EXTT19=
EXTT20=
EXTT21=
EXTT22=
EXTT23=
EXTT24=
PLAYORDER=
